<svg width="40" height="40" viewBox="0 0 40 40" fill="none" xmlns="http://www.w3.org/2000/svg">
<path d="M37.5 32.5H36.25V11.25C36.25 10.9185 36.1183 10.6005 35.8839 10.3661C35.6495 10.1317 35.3315 10 35 10H28.75V6.25C28.75 5.91848 28.6183 5.60054 28.3839 5.36612C28.1495 5.1317 27.8315 5 27.5 5H12.5C12.1685 5 11.8505 5.1317 11.6161 5.36612C11.3817 5.60054 11.25 5.91848 11.25 6.25V15H5C4.66848 15 4.35054 15.1317 4.11612 15.3661C3.8817 15.6005 3.75 15.9185 3.75 16.25V32.5H2.5C2.16848 32.5 1.85054 32.6317 1.61612 32.8661C1.3817 33.1005 1.25 33.4185 1.25 33.75C1.25 34.0815 1.3817 34.3995 1.61612 34.6339C1.85054 34.8683 2.16848 35 2.5 35H37.5C37.8315 35 38.1495 34.8683 38.3839 34.6339C38.6183 34.3995 38.75 34.0815 38.75 33.75C38.75 33.4185 38.6183 33.1005 38.3839 32.8661C38.1495 32.6317 37.8315 32.5 37.5 32.5ZM12.5 27.5H10C9.66848 27.5 9.35054 27.3683 9.11612 27.1339C8.8817 26.8995 8.75 26.5815 8.75 26.25C8.75 25.9185 8.8817 25.6005 9.11612 25.3661C9.35054 25.1317 9.66848 25 10 25H12.5C12.8315 25 13.1495 25.1317 13.3839 25.3661C13.6183 25.6005 13.75 25.9185 13.75 26.25C13.75 26.5815 13.6183 26.8995 13.3839 27.1339C13.1495 27.3683 12.8315 27.5 12.5 27.5ZM12.5 22.5H10C9.66848 22.5 9.35054 22.3683 9.11612 22.1339C8.8817 21.8995 8.75 21.5815 8.75 21.25C8.75 20.9185 8.8817 20.6005 9.11612 20.3661C9.35054 20.1317 9.66848 20 10 20H12.5C12.8315 20 13.1495 20.1317 13.3839 20.3661C13.6183 20.6005 13.75 20.9185 13.75 21.25C13.75 21.5815 13.6183 21.8995 13.3839 22.1339C13.1495 22.3683 12.8315 22.5 12.5 22.5ZM22.5 32.5H17.5V26.25H22.5V32.5ZM21.25 22.5H18.75C18.4185 22.5 18.1005 22.3683 17.8661 22.1339C17.6317 21.8995 17.5 21.5815 17.5 21.25C17.5 20.9185 17.6317 20.6005 17.8661 20.3661C18.1005 20.1317 18.4185 20 18.75 20H21.25C21.5815 20 21.8995 20.1317 22.1339 20.3661C22.3683 20.6005 22.5 20.9185 22.5 21.25C22.5 21.5815 22.3683 21.8995 22.1339 22.1339C21.8995 22.3683 21.5815 22.5 21.25 22.5ZM21.25 17.5H18.75C18.4185 17.5 18.1005 17.3683 17.8661 17.1339C17.6317 16.8995 17.5 16.5815 17.5 16.25C17.5 15.9185 17.6317 15.6005 17.8661 15.3661C18.1005 15.1317 18.4185 15 18.75 15H21.25C21.5815 15 21.8995 15.1317 22.1339 15.3661C22.3683 15.6005 22.5 15.9185 22.5 16.25C22.5 16.5815 22.3683 16.8995 22.1339 17.1339C21.8995 17.3683 21.5815 17.5 21.25 17.5ZM21.25 12.5H18.75C18.4185 12.5 18.1005 12.3683 17.8661 12.1339C17.6317 11.8995 17.5 11.5815 17.5 11.25C17.5 10.9185 17.6317 10.6005 17.8661 10.3661C18.1005 10.1317 18.4185 10 18.75 10H21.25C21.5815 10 21.8995 10.1317 22.1339 10.3661C22.3683 10.6005 22.5 10.9185 22.5 11.25C22.5 11.5815 22.3683 11.8995 22.1339 12.1339C21.8995 12.3683 21.5815 12.5 21.25 12.5ZM30 27.5H27.5C27.1685 27.5 26.8505 27.3683 26.6161 27.1339C26.3817 26.8995 26.25 26.5815 26.25 26.25C26.25 25.9185 26.3817 25.6005 26.6161 25.3661C26.8505 25.1317 27.1685 25 27.5 25H30C30.3315 25 30.6495 25.1317 30.8839 25.3661C31.1183 25.6005 31.25 25.9185 31.25 26.25C31.25 26.5815 31.1183 26.8995 30.8839 27.1339C30.6495 27.3683 30.3315 27.5 30 27.5ZM30 22.5H27.5C27.1685 22.5 26.8505 22.3683 26.6161 22.1339C26.3817 21.8995 26.25 21.5815 26.25 21.25C26.25 20.9185 26.3817 20.6005 26.6161 20.3661C26.8505 20.1317 27.1685 20 27.5 20H30C30.3315 20 30.6495 20.1317 30.8839 20.3661C31.1183 20.6005 31.25 20.9185 31.25 21.25C31.25 21.5815 31.1183 21.8995 30.8839 22.1339C30.6495 22.3683 30.3315 22.5 30 22.5ZM30 17.5H27.5C27.1685 17.5 26.8505 17.3683 26.6161 17.1339C26.3817 16.8995 26.25 16.5815 26.25 16.25C26.25 15.9185 26.3817 15.6005 26.6161 15.3661C26.8505 15.1317 27.1685 15 27.5 15H30C30.3315 15 30.6495 15.1317 30.8839 15.3661C31.1183 15.6005 31.25 15.9185 31.25 16.25C31.25 16.5815 31.1183 16.8995 30.8839 17.1339C30.6495 17.3683 30.3315 17.5 30 17.5Z" fill="white"/>
</svg>
