<svg width="114" height="121" viewBox="0 0 114 121" fill="none" xmlns="http://www.w3.org/2000/svg" class="inline-block size-3"><g clip-path="url(#clip0_185_2)"><path fill-rule="evenodd" clip-rule="evenodd" d="M0 7.43718C0 11.5425 3.35117 14.8722 7.48313 14.8722H69.497C76.565 14.8722 82.3854 17.0416 86.9584 21.3803C91.5312 25.719 93.8177 31.2958 93.8177 38.1128C93.8177 44.4135 91.5312 49.5776 86.9562 53.6052C82.3854 57.5312 76.565 59.4931 69.497 59.4931H42.5457C38.4116 59.4931 35.0604 62.8206 35.0604 66.9303C35.0604 71.0356 38.4116 74.3653 42.5457 74.3653H72.3061L99.1198 117.126C100.782 119.71 103.121 121 106.134 121C109.462 121 111.8 119.71 113.15 117.126C114.501 114.442 114.241 111.601 112.372 108.606L88.5178 70.4911C94.962 67.6001 100.055 63.3651 103.796 57.7883C107.539 52.1078 109.41 45.55 109.41 38.1128C109.41 30.5719 107.693 23.9623 104.265 18.2818C100.939 12.5991 96.2633 8.15886 90.2342 4.95668C84.2051 1.65079 77.2942 0 69.497 0H7.48528C3.35117 0 0 3.3275 0 7.43718Z" fill="white"></path></g><defs><clipPath id="clip0_185_2"><rect width="114" height="121" fill="white"></rect></clipPath></defs></svg>