<svg width="40" height="40" viewBox="0 0 40 40" fill="none" xmlns="http://www.w3.org/2000/svg">
<path d="M37.5007 8.75V18.75C37.5009 18.9974 37.4277 19.2392 37.2903 19.445C37.153 19.6507 36.9577 19.8111 36.7292 19.9058C36.5007 20.0005 36.2492 20.0252 36.0066 19.9769C35.764 19.9286 35.5411 19.8094 35.3663 19.6344L31.2507 15.5172L22.1351 24.6344C22.019 24.7506 21.8811 24.8428 21.7294 24.9057C21.5776 24.9686 21.415 25.001 21.2507 25.001C21.0864 25.001 20.9238 24.9686 20.772 24.9057C20.6203 24.8428 20.4824 24.7506 20.3663 24.6344L15.0007 19.2672L4.63507 29.6344C4.40052 29.8689 4.0824 30.0007 3.75069 30.0007C3.41899 30.0007 3.10087 29.8689 2.86632 29.6344C2.63177 29.3998 2.5 29.0817 2.5 28.75C2.5 28.4183 2.63177 28.1002 2.86632 27.8656L14.1163 16.6156C14.2324 16.4994 14.3703 16.4072 14.522 16.3443C14.6738 16.2814 14.8364 16.249 15.0007 16.249C15.165 16.249 15.3276 16.2814 15.4794 16.3443C15.6311 16.4072 15.769 16.4994 15.8851 16.6156L21.2507 21.9828L29.4835 13.75L25.3663 9.63438C25.1913 9.45956 25.0721 9.23674 25.0238 8.99413C24.9755 8.75153 25.0002 8.50004 25.0949 8.27151C25.1896 8.04298 25.35 7.84769 25.5557 7.71035C25.7615 7.57301 26.0033 7.49981 26.2507 7.5H36.2507C36.5822 7.5 36.9002 7.6317 37.1346 7.86612C37.369 8.10054 37.5007 8.41848 37.5007 8.75Z" fill="white"/>
</svg>
